<mxfile host="app.diagrams.net" modified="2023-11-06T13:42:43.305Z" agent="Mozilla/5.0 (Windows NT 10.0; Win64; x64) AppleWebKit/537.36 (KHTML, like Gecko) Chrome/119.0.0.0 Safari/537.36" version="22.0.8" etag="QnvM9s5b2B_IbAiOJg64" type="github">
  <diagram name="Page-1" id="80JDjgKvxEUW3aTi4PoE">
    <mxGraphModel>
      <root>
        <mxCell id="0" />
        <mxCell id="1" parent="0" />
      </root>
    </mxGraphModel>
  </diagram>
</mxfile>
